Coordinates
version=1
nRows=54
nColumns=12
inDegrees=yes

Units are S.I. units (second, meters, Newtons, ...)
Angles are in degrees

endheader
time	SC_y	SC_z	SC_x	AC_y	AC_z	AC_x	GH_y	GH_z	GH_yy	EL_x	PS_y
       0.0              -31.11          26.79          64.88          44.81         -18.21          5.021         -18.42         -19.63          79.73          89.73          43.51
  0.008987              -31.11          26.79          64.87          44.81         -18.21          5.023         -18.39         -19.62          79.72          89.73          43.51
   0.01797              -31.11          26.79          64.87          44.81          -18.2          5.025         -18.36         -19.62          79.71          89.74           43.5
   0.02696              -31.11          26.78          64.86          44.81          -18.2          5.027         -18.33         -19.61           79.7          89.74           43.5
   0.03595              -31.12          26.78          64.85          44.81          -18.2          5.029          -18.3          -19.6          79.69          89.74          43.49
   0.04493              -31.12          26.77          64.84          44.81         -18.19          5.031         -18.27          -19.6          79.67          89.74          43.49
   0.05392              -31.13          26.77          64.83          44.81         -18.19          5.033         -18.23         -19.59          79.66          89.75          43.48
   0.06291              -31.13          26.76          64.82          44.81         -18.18          5.035         -18.19         -19.58          79.64          89.75          43.47
   0.07189              -31.13          26.75          64.81           44.8         -18.17          5.038         -18.15         -19.57          79.63          89.75          43.47
   0.08088              -31.14          26.75           64.8           44.8         -18.17          5.041          -18.1         -19.56          79.61          89.76          43.46
   0.08987              -31.15          26.74          64.79           44.8         -18.16          5.044         -18.05         -19.55          79.59          89.76          43.45
   0.09885              -31.15          26.73          64.77           44.8         -18.15          5.047          -18.0         -19.54          79.57          89.76          43.44
    0.1078              -31.16          26.72          64.76           44.8         -18.14           5.05         -17.94         -19.53          79.55          89.77          43.43
    0.1168              -31.16          26.71          64.74          44.79         -18.14          5.054         -17.88         -19.52          79.52          89.77          43.42
    0.1258              -31.17           26.7          64.73          44.79         -18.13          5.058         -17.82          -19.5           79.5          89.78          43.41
    0.1348              -31.18          26.69          64.71          44.79         -18.12          5.063         -17.74         -19.49          79.47          89.78           43.4
    0.1438              -31.19          26.68          64.69          44.79         -18.11          5.067         -17.66         -19.47          79.44          89.79          43.39
    0.1528               -31.2          26.67          64.67          44.78         -18.09          5.072         -17.58         -19.46          79.41           89.8          43.38
    0.1618              -31.21          26.65          64.64          44.78         -18.08          5.078         -17.49         -19.44          79.37           89.8          43.36
    0.1707              -31.22          26.64          64.62          44.78         -18.07          5.084         -17.38         -19.42          79.33          89.81          43.34
    0.1797              -31.23          26.62          64.59          44.77         -18.05          5.091         -17.27         -19.39          79.29          89.82          43.33
    0.1887              -31.24           26.6          64.56          44.77         -18.03          5.099         -17.15         -19.37          79.24          89.83          43.31
    0.1977              -31.26          26.58          64.52          44.76         -18.01          5.107         -17.01         -19.34          79.19          89.84          43.28
    0.2067              -31.27          26.56          64.48          44.76         -17.99          5.116         -16.86         -19.31          79.13          89.85          43.26
    0.2157              -31.29          26.54          64.44          44.75         -17.97          5.126         -16.69         -19.28          79.06          89.86          43.23
    0.2247              -31.31          26.51          64.39          44.75         -17.94          5.138         -16.51         -19.24          78.99          89.88           43.2
    0.2337              -31.34          26.48          64.34          44.74         -17.91           5.15          -16.3         -19.19          78.91          89.89          43.17
    0.2426              -31.36          26.44          64.28          44.73         -17.88          5.165         -16.06         -19.15          78.82          89.91          43.13
    0.2516              -31.39           26.4          64.21          44.72         -17.84          5.181          -15.8         -19.09          78.71          89.93          43.09
    0.2606              -31.42          26.36          64.14          44.71          -17.8          5.199         -15.49         -19.03           78.6          89.95          43.04
    0.2696              -31.46          26.31          64.05           44.7         -17.75           5.22         -15.15         -18.96          78.46          89.98          42.98
    0.2786               -31.5          26.25          63.95          44.68         -17.69          5.245         -14.75         -18.88          78.31          90.01          42.92
    0.2876              -31.55          26.18          63.83          44.67         -17.63          5.272         -14.29         -18.79          78.13          90.04          42.84
    0.2966              -31.61           26.1           63.7          44.65         -17.56          5.305         -13.76         -18.68          77.92          90.08          42.75
    0.3055              -31.68          26.01          63.54          44.63         -17.47          5.342         -13.14         -18.55          77.68          90.13          42.65
    0.3145              -31.76           25.9          63.35           44.6         -17.36          5.387         -12.41          -18.4          77.39          90.18          42.53
    0.3235              -31.85          25.77          63.13          44.57         -17.24           5.44         -11.54         -18.22          77.06          90.25          42.39
    0.3325              -31.96          25.61          62.86          44.53         -17.09          5.504         -10.49         -18.01          76.65          90.33          42.22
    0.3415               -32.1          25.43          62.54          44.49         -16.92           5.58         -9.229         -17.75          76.16          90.42          42.02
    0.3505              -32.27           25.2          62.15          44.43          -16.7          5.674         -7.685         -17.44          75.56          90.54          41.77
    0.3595              -32.47          24.91          61.67          44.37         -16.43           5.79         -5.781         -17.05          74.82          90.68          41.46
    0.3685              -32.73          24.56          61.06          44.28         -16.09          5.935         -3.405         -16.57          73.89          90.86          41.07
    0.3774              -33.06          24.11           60.3          44.18         -15.67          6.117        -0.4128         -15.96          72.73          91.09          40.58
    0.3864              -33.47          23.55          59.33          44.04         -15.13          6.348          3.391         -15.18          71.25          91.37          39.97
    0.3954              -33.99          22.82          58.09          43.87         -14.45          6.644           8.26         -14.19          69.35          91.74          39.17
    0.4044              -34.67          21.89           56.5          43.65         -13.57          7.024          14.51         -12.91          66.92          92.21          38.16
    0.4134              -35.54           20.7          54.47          43.36         -12.44           7.51          22.49         -11.29          63.81          92.81          36.86
    0.4224              -36.62          19.21          51.92          43.01         -11.02           8.12          32.52         -9.241          59.91          93.57          35.23
    0.4314              -37.95          17.39          48.81          42.57         -9.299          8.864          44.75         -6.748          55.15          94.49          33.24
    0.4404              -39.48          15.28           45.2          42.07         -7.299          9.727          58.93         -3.858          49.63          95.56          30.93
    0.4493              -41.14          12.99           41.3          41.53         -5.133          10.66          74.28        -0.7287          43.66          96.71          28.44
    0.4583               -42.8          10.71          37.39          40.98         -2.968          11.59          89.63          2.401          37.68          97.87          25.94
    0.4673              -44.34          8.594          33.79          40.48        -0.9676          12.46          103.8          5.291          32.17          98.94          23.64
    0.4763              -45.66          6.773          30.67          40.04         0.7578           13.2          116.0          7.784          27.41          99.86          21.65
